<?xml version="1.0" standalone="no"?>
<!DOCTYPE svg PUBLIC "-//W3C//DTD SVG 20010904//EN"
 "http://www.w3.org/TR/2001/REC-SVG-20010904/DTD/svg10.dtd">
<svg version="1.0" xmlns="http://www.w3.org/2000/svg"
 width="855.000000pt" height="855.000000pt" viewBox="0 0 855.000000 855.000000"
 preserveAspectRatio="xMidYMid meet">

<g transform="translate(0.000000,855.000000) scale(0.100000,-0.100000)"
fill="#000000" stroke="none">
<path d="M4150 6932 c0 -21 -11 -58 -26 -86 -25 -47 -140 -176 -157 -176 -5 0
-20 -9 -34 -20 -14 -11 -33 -20 -41 -20 -9 0 -23 -7 -32 -15 -15 -14 -84 -28
-218 -45 -35 -4 -96 -4 -135 1 -40 5 -133 13 -207 19 -74 5 -154 12 -178 16
-59 8 -311 -15 -344 -31 -15 -7 -42 -17 -60 -20 -60 -14 -155 -71 -213 -130
-51 -51 -67 -76 -99 -156 l-26 -66 0 -460 0 -461 -37 -37 c-47 -47 -67 -95
-67 -165 0 -70 21 -121 67 -168 l37 -38 0 -331 c0 -367 -3 -346 71 -455 24
-36 94 -98 109 -98 13 0 22 -69 11 -87 -8 -15 -30 -18 -163 -20 -91 -2 -173
-9 -203 -17 -27 -8 -75 -17 -105 -21 -30 -4 -63 -11 -72 -16 -10 -6 -44 -14
-75 -20 -31 -6 -66 -17 -77 -25 -11 -8 -29 -14 -40 -14 -18 0 -42 -9 -126 -49
-14 -6 -38 -20 -55 -31 -16 -11 -43 -27 -60 -36 -39 -22 -195 -181 -195 -200
0 -8 -9 -22 -20 -31 -11 -10 -20 -23 -20 -31 0 -7 -9 -30 -19 -50 -11 -20 -24
-57 -31 -82 -6 -25 -16 -63 -21 -85 -16 -61 -4 -456 15 -525 9 -30 16 -73 16
-95 0 -22 6 -50 14 -61 8 -11 18 -38 22 -60 4 -21 15 -55 24 -74 10 -19 31
-61 46 -92 16 -32 32 -58 36 -58 4 0 9 -8 12 -18 8 -25 113 -130 161 -160 88
-57 225 -112 278 -112 26 0 67 -34 67 -55 0 -32 -51 -35 -560 -35 -481 0 -511
-1 -554 -19 -35 -15 -50 -29 -65 -62 -12 -24 -21 -50 -21 -59 0 -22 35 -94 53
-108 11 -9 825 -11 3418 -10 l3403 3 28 40 c15 22 27 53 28 68 0 48 -36 105
-82 127 -41 20 -59 20 -1044 20 -842 0 -1003 2 -1013 14 -8 9 -11 60 -9 157
l3 144 674 3 c478 1 678 5 688 13 7 6 13 20 13 31 0 10 7 32 15 49 9 16 19 60
22 97 3 37 12 76 19 87 6 11 15 49 19 85 4 36 13 76 20 90 7 14 15 54 19 89 4
36 13 76 20 90 7 14 16 57 20 94 4 38 13 79 20 90 8 12 17 51 21 87 3 35 11
73 17 83 6 11 14 51 19 88 5 38 15 82 24 98 8 17 15 48 15 71 0 22 9 66 20 97
11 32 20 74 20 95 0 20 9 60 20 88 11 28 20 72 20 98 0 26 7 61 16 77 9 17 20
64 26 105 5 41 14 80 19 86 6 7 14 43 19 81 5 37 12 81 16 97 14 59 115 56
-1635 56 -883 0 -1612 4 -1619 9 -11 6 -13 103 -12 505 1 526 -1 507 47 601 9
17 19 44 24 60 4 17 14 48 23 70 11 30 15 84 16 225 0 170 2 190 23 242 13 31
28 63 34 70 36 48 70 246 44 262 -5 4 -23 -2 -39 -11 -17 -10 -33 -15 -36 -13
-2 3 4 55 14 115 17 101 17 120 4 234 -8 68 -21 139 -29 159 -8 19 -15 46 -15
59 0 30 -49 112 -67 113 -8 0 -13 -14 -13 -38z m-515 -1110 c40 -14 88 -17
243 -17 l192 0 -2 -765 -3 -765 -124 -3 c-68 -1 -129 2 -134 7 -5 5 -1 20 12
38 14 19 21 47 23 88 l3 60 -317 3 c-298 2 -318 1 -320 -15 -3 -35 4 -67 18
-87 8 -11 14 -28 14 -37 0 -26 66 -105 117 -139 27 -19 68 -35 99 -40 72 -12
198 1 222 23 24 22 32 13 32 -34 0 -35 -24 -113 -40 -132 -4 -4 -237 -7 -519
-7 l-513 0 -47 27 c-55 33 -112 92 -143 147 -21 39 -22 53 -26 349 -3 324 -1
348 39 327 14 -8 27 -4 55 15 21 14 47 24 58 23 18 -3 21 2 21 32 0 21 12 55
29 85 l29 49 1 221 c1 215 2 222 26 270 28 56 123 156 172 181 18 9 35 20 38
24 5 6 43 25 135 67 76 34 512 38 610 5z m-1171 -568 c14 -5 16 -30 16 -175 0
-182 2 -175 -53 -171 -25 3 -75 54 -82 85 -4 15 -13 31 -21 38 -18 15 -18 83
0 98 8 7 17 25 21 40 3 16 23 41 47 59 44 34 48 35 72 26z m1324 -865 c2 -26
-4 -47 -20 -70 -33 -48 -61 -79 -71 -79 -5 0 -20 -9 -33 -19 -47 -37 -216 -39
-264 -3 -63 47 -109 96 -115 123 -4 16 -11 31 -16 34 -18 12 -9 44 14 47 12 3
130 4 262 4 l240 -1 3 -36z m42 -224 c0 -40 -8 -88 -20 -122 -11 -32 -20 -73
-20 -93 0 -20 -9 -61 -20 -93 -11 -31 -20 -75 -20 -97 0 -23 -7 -55 -16 -72
-9 -17 -19 -59 -21 -92 -3 -34 -12 -73 -19 -88 -8 -15 -17 -56 -21 -90 -3 -35
-12 -75 -20 -90 -7 -15 -16 -56 -20 -90 -3 -35 -11 -74 -18 -88 -7 -14 -16
-54 -20 -90 -4 -36 -13 -76 -20 -90 -7 -14 -16 -55 -20 -93 -3 -37 -13 -79
-20 -95 -7 -15 -16 -56 -20 -92 -4 -35 -13 -74 -20 -85 -7 -11 -16 -51 -19
-90 -4 -38 -12 -75 -17 -82 -6 -7 -15 -45 -20 -84 -5 -40 -16 -89 -26 -110
-14 -32 -22 -39 -45 -39 -34 0 -47 24 -29 52 7 11 19 56 26 101 15 82 19 102
50 232 10 39 21 93 25 121 4 27 15 75 23 105 8 29 20 79 26 109 6 30 15 73 20
95 43 184 51 223 51 243 0 12 9 48 20 79 11 32 20 72 20 89 0 17 9 60 20 94
11 34 20 78 20 96 0 19 7 51 15 71 8 21 19 69 24 106 5 38 14 74 20 81 6 7 14
43 20 82 5 38 16 87 25 109 8 22 15 58 16 79 0 27 7 47 22 63 37 40 48 30 48
-42z m3491 49 c13 -16 -2 -142 -25 -199 -8 -22 -15 -59 -16 -83 0 -24 -6 -55
-14 -71 -8 -15 -18 -56 -22 -92 -4 -35 -12 -75 -19 -89 -7 -14 -16 -56 -20
-95 -4 -38 -13 -79 -20 -90 -7 -11 -16 -51 -20 -89 -4 -39 -13 -79 -20 -90 -7
-12 -16 -51 -19 -87 -3 -37 -12 -79 -20 -95 -8 -16 -17 -58 -21 -94 -3 -36
-11 -70 -17 -77 -5 -7 -14 -47 -19 -90 -6 -42 -15 -83 -20 -90 -6 -7 -15 -46
-20 -87 -5 -41 -16 -87 -24 -103 -8 -15 -15 -50 -15 -78 -1 -28 -9 -67 -20
-90 -11 -22 -19 -62 -20 -88 0 -26 -9 -68 -20 -93 l-21 -44 -662 2 -662 3 -5
115 -5 115 -270 0 -270 0 -3 -117 -3 -118 -747 -1 c-411 -1 -758 0 -772 1 -38
3 -46 16 -28 48 8 15 19 58 23 97 4 38 13 79 21 90 8 10 14 40 14 65 1 25 8
63 16 85 8 22 19 73 24 114 5 40 14 79 21 87 6 7 15 47 20 88 5 41 16 87 24
103 8 15 15 49 15 74 0 26 9 66 20 90 11 24 20 62 20 84 0 23 9 66 20 98 11
31 20 76 20 99 0 24 7 57 16 73 9 17 18 57 21 90 3 33 12 73 20 88 7 15 16 58
20 95 3 37 12 77 19 89 8 12 16 48 20 80 3 32 12 74 19 93 7 20 16 62 20 95 5
38 15 68 27 81 l20 22 1694 -1 c1360 0 1696 -3 1705 -13z m-4213 -281 c8 -12
12 -60 12 -155 0 -127 -2 -141 -22 -168 -34 -46 -87 -76 -161 -90 -121 -22
-239 13 -295 90 -20 27 -22 41 -22 184 0 93 4 156 10 158 5 2 112 2 237 0 198
-2 230 -5 241 -19z m552 -2 c15 -29 13 -35 -17 -52 -23 -12 -65 -14 -248 -9
l-220 5 -3 23 c-8 53 -10 52 242 52 222 0 236 -1 246 -19z m-1425 -601 c4 -6
6 -240 6 -521 0 -372 -3 -515 -12 -525 -17 -21 -212 -20 -229 1 -7 8 -27 15
-44 15 -46 0 -76 11 -76 26 0 8 -10 18 -22 23 -50 19 -144 124 -197 221 -44
79 -65 354 -36 480 10 41 27 91 38 110 22 37 75 89 92 90 6 0 27 9 48 20 20
11 49 20 63 20 15 0 34 10 44 22 15 19 21 21 42 11 18 -8 28 -8 43 3 23 17
230 20 240 4z m932 -1000 c32 -11 65 -20 74 -20 27 0 61 -48 49 -70 -14 -25
-13 -63 2 -78 7 -7 43 -12 93 -12 l80 0 23 -42 c26 -51 28 -83 5 -92 -9 -4
-125 -6 -257 -5 -154 0 -251 -3 -269 -10 -36 -14 -102 -14 -128 -1 -18 10 -19
23 -19 174 0 89 3 166 7 169 3 4 69 7 145 7 113 0 149 -4 195 -20z m1721 -229
c2 -25 1 -55 -3 -68 l-5 -23 -395 0 c-231 0 -404 4 -419 10 -24 9 -26 15 -26
64 0 34 5 56 13 59 6 3 197 5 422 4 l410 -2 3 -44z m120 -124 l2 -168 -32 3
-33 3 -3 159 c-3 168 0 179 43 174 19 -3 20 -12 23 -171z m-2782 -92 c11 -44
-9 -55 -100 -55 -50 0 -87 5 -94 12 -13 13 -16 50 -5 61 3 4 48 7 99 7 92 0
94 -1 100 -25z m2668 -110 c29 -22 547 -22 599 0 32 13 172 15 1057 15 1124 0
1042 4 1097 -59 28 -33 28 -42 1 -85 l-23 -35 -3380 0 -3380 0 -22 35 c-24 37
-30 64 -14 64 5 0 12 9 16 19 3 11 20 29 38 40 32 19 56 19 2012 20 1726 0
1982 -2 1999 -14z"/>
<path d="M3063 5365 c-3 -9 -2 -19 2 -23 3 -4 52 -8 108 -10 80 -3 106 0 122
12 33 26 1 36 -118 36 -88 0 -109 -3 -114 -15z"/>
<path d="M3793 5364 c-10 -27 17 -34 127 -32 97 3 105 4 105 23 0 19 -8 20
-113 23 -96 2 -113 0 -119 -14z"/>
<path d="M3160 5233 c-45 -28 -70 -78 -70 -142 0 -55 3 -61 40 -100 32 -33 47
-41 75 -41 19 0 35 4 35 9 0 5 8 12 18 15 10 4 29 31 42 63 l23 56 -18 55
c-15 42 -27 60 -57 78 -43 27 -53 28 -88 7z"/>
<path d="M3838 5223 c-31 -21 -39 -34 -48 -77 -19 -92 9 -163 75 -191 35 -15
64 -4 105 39 21 23 24 36 25 103 l0 75 -44 39 c-24 22 -51 39 -60 38 -9 0 -33
-12 -53 -26z"/>
<path d="M3594 4935 c-16 -13 -17 -16 -4 -25 8 -5 22 -10 31 -10 17 0 46 -29
74 -73 17 -27 17 -29 -4 -57 -11 -16 -21 -34 -21 -39 0 -6 -12 -13 -27 -17
-49 -10 -55 -14 -51 -31 6 -27 69 -22 99 8 28 28 59 86 59 111 0 25 -33 84
-63 112 -34 31 -69 39 -93 21z"/>
<path d="M5285 3590 c-22 -11 -45 -19 -52 -20 -20 0 -95 -55 -133 -97 -20 -21
-49 -65 -65 -97 -28 -56 -30 -67 -30 -172 1 -103 3 -116 30 -169 37 -73 117
-153 190 -191 54 -27 65 -29 174 -29 88 1 123 5 146 17 17 9 44 23 60 31 34
16 104 80 122 111 58 99 67 130 67 231 1 80 -3 106 -16 128 -10 14 -18 36 -18
47 0 26 -163 190 -189 190 -10 0 -38 9 -62 20 -59 27 -169 27 -224 0z"/>
</g>
</svg>
